<svg id="svg" version="1.1" xmlns="http://www.w3.org/2000/svg" xmlns:xlink="http://www.w3.org/1999/xlink" width="400" height="266.6666666666667" viewBox="0, 0, 400,266.6666666666667"><g id="svgg"><path id="path0" d="M0.000 133.333 L 0.000 266.667 200.000 266.667 L 400.000 266.667 400.000 133.333 L 400.000 0.000 200.000 0.000 L 0.000 0.000 0.000 133.333 M130.534 94.228 L 139.323 102.992 139.323 114.193 L 139.323 125.394 130.794 133.913 L 122.266 142.433 107.943 142.468 L 93.620 142.503 108.295 157.059 L 122.970 171.615 128.933 171.615 L 134.896 171.615 134.890 167.773 L 134.884 163.932 132.910 161.589 C 131.825 160.299,129.584 157.546,127.932 155.469 C 126.279 153.392,124.738 151.471,124.508 151.199 C 123.654 150.194,124.732 150.965,126.595 152.693 C 127.651 153.673,130.821 156.603,133.638 159.203 L 138.760 163.932 138.781 169.828 L 138.802 175.724 133.670 175.917 C 130.847 176.023,126.892 176.029,124.880 175.930 L 121.224 175.751 116.667 171.264 C 114.160 168.796,105.664 160.367,97.786 152.532 L 83.464 138.288 101.963 138.285 L 120.463 138.281 127.419 131.296 L 134.375 124.310 134.375 114.454 L 134.375 104.597 127.279 97.451 L 120.182 90.304 113.867 90.456 C 108.419 90.588,107.552 90.556,107.552 90.226 C 107.552 89.893,104.550 89.844,84.115 89.844 L 60.677 89.844 60.677 131.192 L 60.677 172.540 61.784 172.445 C 62.823 172.355,63.160 172.084,67.318 167.998 C 75.175 160.274,86.056 150.018,85.411 150.944 C 85.199 151.248,84.089 152.587,82.943 153.920 C 81.797 155.253,77.656 160.102,73.740 164.695 C 69.825 169.289,65.921 173.838,65.065 174.805 L 63.509 176.563 59.879 176.563 L 56.250 176.563 56.250 130.995 L 56.250 85.428 61.003 85.357 C 63.617 85.318,78.353 85.326,93.750 85.375 L 121.745 85.464 130.534 94.228 M217.448 97.030 C 217.448 97.297,214.631 101.069,212.495 103.660 C 210.261 106.372,206.487 110.124,204.666 111.446 L 203.516 112.280 203.351 111.544 C 203.261 111.139,203.173 109.894,203.156 108.778 L 203.125 106.749 204.822 104.804 C 205.755 103.734,207.519 101.512,208.743 99.867 L 210.968 96.875 214.208 96.875 C 215.990 96.875,217.448 96.945,217.448 97.030 M177.982 99.317 C 180.094 102.591,182.289 106.589,183.575 109.505 C 188.252 120.108,192.527 126.554,198.086 131.382 C 199.210 132.358,200.162 133.233,200.200 133.325 C 200.417 133.845,196.103 137.523,195.595 137.251 C 194.706 136.776,190.362 132.518,188.941 130.729 C 185.439 126.324,183.508 122.843,180.340 115.234 L 179.906 114.193 179.020 116.667 C 176.383 124.035,171.968 131.023,167.035 135.639 C 164.316 138.182,164.662 138.152,162.105 136.072 C 159.554 133.998,159.583 134.283,161.743 132.473 C 167.653 127.521,173.654 117.720,176.314 108.677 L 176.634 107.588 173.278 102.557 C 171.432 99.790,169.883 97.438,169.835 97.331 C 169.787 97.223,171.284 97.135,173.161 97.135 L 176.574 97.135 177.982 99.317 M242.448 101.172 L 242.448 103.646 231.380 103.646 L 220.313 103.646 220.313 101.172 L 220.313 98.698 231.380 98.698 L 242.448 98.698 242.448 101.172 M266.622 100.741 C 274.523 103.522,276.026 112.786,269.302 117.262 L 268.683 117.674 269.876 118.235 C 272.757 119.589,274.088 122.195,273.911 126.134 C 273.551 134.118,267.317 137.059,253.320 135.848 L 250.781 135.628 250.781 133.049 C 250.781 131.630,250.869 130.470,250.977 130.471 C 251.084 130.472,252.461 130.646,254.036 130.856 C 263.296 132.096,267.385 130.583,267.885 125.732 C 268.302 121.696,265.884 120.313,258.416 120.313 L 254.948 120.313 254.948 117.595 L 254.948 114.878 259.310 114.796 C 265.484 114.679,267.318 113.533,267.318 109.788 C 267.318 106.015,265.561 105.147,257.617 104.999 L 251.823 104.891 251.823 102.420 L 251.823 99.948 258.398 100.055 C 264.370 100.152,265.125 100.215,266.622 100.741 M305.208 102.745 L 305.208 105.490 303.190 105.297 C 299.862 104.977,294.526 105.046,293.042 105.428 C 289.320 106.385,286.458 110.461,286.458 114.805 L 286.458 115.575 287.826 114.840 C 295.933 110.483,305.525 114.321,306.517 122.320 C 307.643 131.399,299.973 137.849,290.311 135.948 C 283.040 134.517,279.126 126.803,280.174 115.972 C 281.317 104.163,286.216 100.044,299.154 100.014 L 305.208 100.000 305.208 102.745 M333.333 102.474 L 333.333 104.948 326.172 104.948 L 319.010 104.948 319.010 109.115 L 319.010 113.281 322.461 113.286 C 330.758 113.297,334.454 115.796,335.422 122.049 C 337.019 132.375,328.237 138.206,315.036 135.586 C 312.886 135.160,313.126 135.513,312.919 132.453 L 312.745 129.880 313.599 130.052 C 325.134 132.383,329.721 130.654,329.377 124.104 C 329.131 119.424,328.183 118.910,319.596 118.798 L 313.281 118.716 313.281 109.358 L 313.281 100.000 323.307 100.000 L 333.333 100.000 333.333 102.474 M216.409 107.827 C 217.697 108.129,218.750 108.487,218.750 108.623 C 218.750 109.137,217.070 112.190,215.724 114.119 L 214.323 116.129 214.323 126.684 L 214.323 137.240 211.589 137.240 L 208.854 137.240 208.854 129.549 L 208.854 121.858 207.487 122.880 C 205.759 124.171,203.548 125.521,203.161 125.521 C 202.960 125.521,202.865 124.725,202.865 123.048 L 202.865 120.575 205.945 117.514 C 209.036 114.442,211.169 111.587,212.663 108.523 C 213.122 107.580,213.521 107.068,213.732 107.149 C 213.917 107.220,215.122 107.525,216.409 107.827 M245.052 113.411 L 245.052 115.885 241.927 115.885 L 238.802 115.885 238.802 124.568 C 238.802 136.836,238.837 136.784,230.432 136.938 L 225.579 137.027 225.029 134.640 C 224.727 133.327,224.479 132.203,224.479 132.142 C 224.479 132.081,226.125 132.031,228.137 132.031 C 231.673 132.031,231.816 132.010,232.434 131.392 L 233.073 130.753 233.073 123.319 L 233.073 115.885 225.911 115.885 L 218.750 115.885 218.750 113.411 L 218.750 110.938 231.901 110.938 L 245.052 110.938 245.052 113.411 M292.229 118.248 C 290.662 118.523,287.556 119.680,287.012 120.190 C 286.509 120.662,286.476 125.002,286.962 126.678 C 288.733 132.783,298.639 132.805,300.400 126.708 C 302.048 121.002,298.350 117.173,292.229 118.248 M249.478 148.737 C 250.466 150.102,250.475 150.521,249.514 150.521 C 248.861 150.521,247.070 148.620,247.441 148.322 C 247.567 148.221,248.558 147.673,248.631 147.664 C 248.666 147.660,249.047 148.143,249.478 148.737 M321.350 148.372 C 321.348 148.480,321.187 149.242,320.994 150.065 L 320.641 151.563 322.300 151.563 C 323.895 151.563,323.958 151.587,323.958 152.214 C 323.958 152.572,323.841 152.865,323.698 152.865 C 323.555 152.865,323.437 153.421,323.436 154.102 C 323.433 155.683,323.004 158.334,322.525 159.723 L 322.152 160.805 323.186 161.858 C 324.359 163.053,324.418 163.281,323.720 163.912 C 323.242 164.345,323.185 164.324,322.337 163.399 L 321.454 162.435 319.932 164.030 C 318.222 165.822,318.253 165.809,317.417 165.132 L 316.808 164.639 318.610 162.965 L 320.412 161.291 319.190 160.451 C 318.467 159.953,317.969 159.411,317.969 159.121 C 317.969 158.620,318.396 155.129,318.615 153.841 C 318.729 153.174,318.675 153.125,317.832 153.125 C 317.000 153.125,316.927 153.062,316.927 152.344 C 316.927 151.608,316.987 151.563,317.950 151.563 L 318.973 151.563 319.281 150.065 C 319.669 148.177,319.669 148.177,320.588 148.177 C 321.010 148.177,321.352 148.265,321.350 148.372 M218.403 151.152 L 218.237 153.866 219.079 154.877 C 220.591 156.690,221.936 158.805,221.759 159.092 C 221.117 160.130,220.641 159.904,219.366 157.955 L 218.104 156.027 217.506 158.405 C 216.361 162.958,214.395 166.073,213.173 165.273 L 212.469 164.811 213.426 163.752 C 215.628 161.314,216.926 156.192,216.927 149.935 L 216.927 148.438 217.748 148.438 L 218.569 148.438 218.403 151.152 M225.521 151.008 C 225.521 156.395,226.713 160.271,229.167 162.866 L 230.494 164.270 229.714 164.825 L 228.935 165.380 227.901 164.005 C 226.721 162.436,225.000 159.126,225.000 158.427 C 225.000 158.169,224.583 158.829,224.072 159.893 C 223.075 161.975,220.702 165.365,220.243 165.365 C 219.025 165.365,219.047 164.540,220.307 162.977 C 223.116 159.491,223.948 156.930,223.954 151.758 L 223.958 148.438 224.740 148.438 L 225.521 148.438 225.521 151.008 M242.632 151.120 C 243.515 152.318,243.533 152.386,243.066 152.739 C 242.381 153.258,242.295 153.230,241.644 152.279 C 241.325 151.813,240.651 150.996,240.147 150.462 C 239.247 149.510,239.239 149.483,239.712 148.960 L 240.195 148.427 240.953 149.148 C 241.370 149.545,242.125 150.432,242.632 151.120 M168.096 150.051 C 168.852 150.892,169.859 152.545,170.753 154.413 C 172.582 158.232,173.625 159.801,175.971 162.264 L 177.855 164.241 177.230 164.828 L 176.604 165.416 174.885 163.696 C 173.035 161.846,171.405 159.503,170.032 156.719 L 169.172 154.973 168.473 156.770 C 167.258 159.892,164.980 163.137,162.880 164.740 L 161.949 165.450 161.392 164.893 L 160.836 164.337 162.668 162.442 C 165.491 159.522,167.316 156.394,167.846 153.566 C 168.016 152.663,167.929 152.446,166.853 151.060 C 165.766 149.660,165.707 149.509,166.096 149.120 C 166.693 148.523,166.743 148.546,168.096 150.051 M192.009 148.994 C 192.322 149.156,192.622 149.327,192.675 149.372 C 192.794 149.475,191.149 151.554,189.480 153.411 L 188.235 154.796 187.762 154.169 L 187.289 153.542 188.848 151.840 C 189.705 150.904,190.598 149.815,190.833 149.418 C 191.323 148.588,191.268 148.608,192.009 148.994 M329.250 149.214 C 329.454 149.402,327.726 152.496,326.882 153.452 C 326.287 154.127,326.520 154.195,329.143 154.112 L 331.530 154.036 330.720 152.761 C 329.912 151.487,330.244 150.029,331.206 150.624 C 332.028 151.132,334.135 155.852,333.686 156.180 C 333.068 156.632,332.878 156.598,332.546 155.978 C 332.277 155.476,332.042 155.447,328.601 155.484 C 323.779 155.535,323.688 155.458,325.456 152.829 C 326.166 151.774,327.020 150.413,327.355 149.803 C 327.954 148.710,328.515 148.535,329.250 149.214 M279.628 153.517 L 279.699 158.073 276.698 158.073 L 273.698 158.073 273.698 159.115 L 273.698 160.156 276.693 160.156 L 279.688 160.156 279.688 160.938 L 279.688 161.719 276.693 161.719 L 273.698 161.719 273.698 162.760 L 273.698 163.802 277.474 163.802 L 281.250 163.802 281.250 164.453 L 281.250 165.104 272.917 165.104 L 264.583 165.104 264.583 164.453 L 264.583 163.802 268.359 163.802 L 272.135 163.802 272.135 162.769 L 272.135 161.736 269.208 161.662 L 266.281 161.589 266.279 160.938 L 266.276 160.286 269.206 160.213 L 272.135 160.139 272.135 159.106 L 272.135 158.073 269.141 158.073 L 266.146 158.073 266.146 153.516 L 266.146 148.958 272.852 148.960 L 279.557 148.962 279.628 153.517 M306.510 150.268 C 306.510 151.040,306.507 151.042,304.948 151.042 L 303.385 151.042 303.385 153.646 L 303.385 156.250 305.469 156.250 L 307.552 156.250 307.553 156.966 L 307.553 157.682 305.600 157.597 L 303.646 157.511 303.646 161.568 L 303.646 165.625 302.865 165.625 L 302.083 165.625 302.083 161.589 L 302.083 157.552 299.504 157.552 L 296.924 157.552 296.742 158.873 C 296.493 160.682,295.059 163.436,293.644 164.822 L 292.471 165.971 291.968 165.351 L 291.465 164.730 292.616 163.420 C 293.886 161.975,294.890 160.039,295.164 158.513 L 295.342 157.520 292.918 157.575 L 290.495 157.630 290.412 156.940 L 290.330 156.250 292.821 156.250 L 295.313 156.250 295.313 153.646 L 295.313 151.042 293.359 151.042 L 291.406 151.042 291.406 150.304 C 291.406 149.279,290.865 149.342,299.067 149.422 L 306.510 149.495 306.510 150.268 M203.338 150.161 L 203.255 150.842 198.633 150.877 L 194.011 150.911 194.011 150.195 L 194.010 149.479 198.715 149.479 L 203.420 149.479 203.338 150.161 M273.698 151.628 L 273.698 152.865 275.911 152.865 L 278.125 152.865 278.125 151.628 L 278.125 150.391 275.912 150.391 L 273.699 150.391 273.698 151.628 M267.708 151.693 L 267.708 152.865 269.922 152.865 L 272.135 152.865 272.135 151.693 L 272.135 150.521 269.922 150.521 L 267.708 150.521 267.708 151.693 M255.208 151.823 C 255.208 152.572,255.162 152.604,254.065 152.604 C 252.969 152.604,252.916 152.640,252.754 153.503 C 252.661 153.997,252.185 155.197,251.696 156.169 C 250.903 157.745,250.853 157.962,251.235 158.176 C 253.197 159.274,255.299 162.120,254.551 162.667 C 253.869 163.166,253.860 163.161,252.786 161.753 C 252.254 161.055,251.352 160.161,250.782 159.766 L 249.746 159.048 248.672 160.018 C 246.620 161.872,244.552 162.577,243.933 161.632 C 243.543 161.037,243.560 161.015,244.749 160.582 C 245.991 160.129,248.457 158.483,248.413 158.135 C 248.399 158.029,247.656 157.283,246.761 156.476 C 245.149 155.024,245.137 155.004,245.586 154.410 L 246.039 153.810 247.824 155.446 L 249.609 157.082 250.311 155.559 C 250.697 154.722,251.090 153.714,251.185 153.320 L 251.359 152.604 247.684 152.604 L 244.010 152.604 244.010 151.823 L 244.010 151.042 249.609 151.042 L 255.208 151.042 255.208 151.823 M296.875 153.646 L 296.875 156.250 299.479 156.250 L 302.083 156.250 302.083 153.646 L 302.083 151.042 299.479 151.042 L 296.875 151.042 296.875 153.646 M320.021 155.869 C 319.647 158.612,319.647 158.612,320.239 159.168 C 320.565 159.474,320.873 159.675,320.924 159.615 C 321.151 159.347,321.589 156.990,321.755 155.143 L 321.936 153.125 321.166 153.125 L 320.395 153.125 320.021 155.869 M192.111 155.292 L 191.297 156.615 191.375 161.120 L 191.452 165.625 190.648 165.625 L 189.844 165.625 189.844 161.928 L 189.844 158.231 188.929 159.118 L 188.014 160.005 187.466 159.457 L 186.918 158.908 187.982 157.947 C 188.567 157.418,189.655 156.187,190.399 155.211 C 191.626 153.602,191.808 153.461,192.339 153.703 L 192.925 153.970 192.111 155.292 M267.708 155.469 L 267.708 156.771 269.922 156.771 L 272.135 156.771 272.135 155.469 L 272.135 154.167 269.922 154.167 L 267.708 154.167 267.708 155.469 M273.698 155.469 L 273.698 156.771 275.911 156.771 L 278.125 156.771 278.125 155.469 L 278.125 154.167 275.911 154.167 L 273.698 154.167 273.698 155.469 M204.427 155.469 L 204.427 156.250 202.713 156.250 L 201.000 156.250 201.086 160.277 C 201.191 165.211,201.091 165.401,198.283 165.579 C 196.432 165.697,196.105 165.519,196.098 164.388 C 196.094 163.841,196.205 163.802,197.759 163.802 C 199.806 163.802,199.740 163.943,199.740 159.614 L 199.740 156.250 196.645 156.250 C 193.559 156.250,193.550 156.248,193.427 155.605 C 193.247 154.665,193.113 154.688,199.002 154.688 L 204.427 154.688 204.427 155.469 M242.448 157.947 L 242.448 161.206 243.294 162.109 C 244.545 163.445,246.279 163.802,251.515 163.802 C 255.302 163.802,255.767 163.849,255.627 164.214 C 255.540 164.441,255.469 164.807,255.469 165.028 C 255.469 166.269,244.398 165.058,242.477 163.606 L 241.595 162.939 240.522 164.177 L 239.448 165.414 238.959 164.873 C 238.412 164.269,238.401 164.292,240.097 162.370 L 241.016 161.328 240.933 158.789 L 240.850 156.250 239.956 156.250 C 239.137 156.250,239.063 156.185,239.063 155.469 L 239.063 154.688 240.755 154.688 L 242.448 154.688 242.448 157.947 M333.073 161.589 L 333.073 165.625 332.397 165.625 C 331.973 165.625,331.678 165.456,331.603 165.169 C 331.442 164.549,326.042 164.629,326.042 165.251 C 326.042 165.493,325.766 165.625,325.260 165.625 L 324.479 165.625 324.479 161.762 C 324.479 159.638,324.557 157.821,324.653 157.726 C 324.748 157.630,326.682 157.552,328.950 157.552 L 333.073 157.552 333.073 161.589 M326.042 161.198 L 326.042 163.281 328.776 163.281 L 331.510 163.281 331.510 161.198 L 331.510 159.115 328.776 159.115 L 326.042 159.115 326.042 161.198 " stroke="none" fill="#04041b" fill-rule="evenodd"></path><path id="path1" d="M208.484 100.277 C 207.206 101.999,205.469 104.162,204.625 105.084 L 203.089 106.759 203.273 109.496 L 203.456 112.233 204.527 111.447 C 208.043 108.869,217.188 98.638,217.188 97.283 C 217.188 97.202,215.752 97.138,213.997 97.141 L 210.807 97.146 208.484 100.277 M170.520 98.372 C 173.065 101.589,176.592 107.442,176.469 108.244 C 175.536 114.322,168.680 125.970,162.683 131.666 L 159.968 134.245 162.145 136.018 C 163.494 137.118,164.445 137.720,164.648 137.601 C 169.288 134.887,176.170 124.689,179.150 116.111 C 179.867 114.048,179.922 113.970,180.178 114.638 C 183.997 124.607,189.636 132.922,195.342 136.999 L 196.023 137.485 198.128 135.530 L 200.232 133.575 196.384 129.743 C 190.945 124.328,188.353 120.309,183.893 110.385 C 182.144 106.490,179.660 101.948,177.328 98.376 L 176.693 97.402 173.220 97.399 L 169.748 97.396 170.520 98.372 M220.313 101.172 L 220.313 103.646 231.380 103.646 L 242.448 103.646 242.448 101.172 L 242.448 98.698 231.380 98.698 L 220.313 98.698 220.313 101.172 M251.823 102.474 L 251.823 104.948 257.227 104.949 C 265.135 104.951,267.448 106.023,267.448 109.684 C 267.448 113.479,265.265 114.873,259.049 115.050 L 254.948 115.166 254.948 117.714 L 254.948 120.262 259.570 120.352 C 265.902 120.476,267.606 121.316,267.908 124.462 C 268.491 130.530,263.075 132.569,251.628 130.591 L 250.781 130.445 250.781 132.901 C 250.781 135.850,250.278 135.572,256.293 135.942 C 268.316 136.680,273.828 133.403,273.821 125.521 C 273.817 121.569,272.639 119.528,269.578 118.168 L 268.452 117.667 269.583 116.950 C 273.979 114.162,274.769 107.644,271.193 103.666 C 268.654 100.842,265.526 100.023,257.227 100.009 L 251.823 100.000 251.823 102.474 M292.057 100.429 C 284.404 102.053,280.600 107.616,280.277 117.653 C 279.864 130.474,284.868 136.814,294.841 136.106 C 302.366 135.572,306.924 130.419,306.448 122.983 C 305.916 114.653,296.493 110.498,287.956 114.828 L 286.458 115.587 286.465 114.499 C 286.509 106.975,292.433 103.792,303.646 105.267 L 305.078 105.455 305.143 102.727 L 305.209 100.000 299.544 100.021 C 295.599 100.036,293.327 100.160,292.057 100.429 M313.542 109.214 L 313.542 118.428 319.466 118.543 C 326.705 118.684,327.705 118.982,328.900 121.354 C 330.552 124.636,329.268 128.923,326.170 130.465 C 324.128 131.481,317.567 131.266,313.477 130.048 C 313.064 129.926,313.021 130.159,313.021 132.514 L 313.021 135.115 313.737 135.257 C 316.942 135.894,318.311 136.029,321.615 136.032 C 330.964 136.040,335.764 131.551,335.361 123.177 C 335.027 116.251,331.083 113.317,322.070 113.290 L 319.010 113.281 319.010 109.115 L 319.010 104.948 326.172 104.948 L 333.333 104.948 333.333 102.474 L 333.333 100.000 323.438 100.000 L 313.542 100.000 313.542 109.214 M212.500 109.035 C 210.669 112.528,208.135 115.726,204.829 118.716 L 202.995 120.375 202.995 122.946 C 202.995 124.360,203.030 125.518,203.073 125.519 C 203.346 125.525,205.110 124.470,206.836 123.269 L 208.854 121.863 208.854 129.551 L 208.854 137.240 211.589 137.240 L 214.323 137.240 214.323 126.568 L 214.323 115.896 215.318 114.581 C 216.364 113.199,218.297 109.879,218.583 108.972 C 218.728 108.512,214.991 107.269,213.539 107.294 C 213.469 107.295,213.001 108.079,212.500 109.035 M218.750 113.411 L 218.750 115.885 225.911 115.885 L 233.073 115.885 233.073 123.419 L 233.073 130.952 232.387 131.492 C 231.767 131.979,231.349 132.031,228.062 132.031 C 225.054 132.031,224.448 132.094,224.563 132.395 C 224.640 132.595,224.909 133.721,225.162 134.897 L 225.621 137.034 230.324 136.926 C 238.732 136.731,238.798 136.632,238.801 124.154 L 238.802 115.885 241.797 115.885 L 244.792 115.885 244.792 113.411 L 244.792 110.938 231.771 110.938 L 218.750 110.938 218.750 113.411 M297.836 118.704 C 303.541 121.639,301.068 130.802,294.465 131.196 C 288.721 131.539,285.772 127.932,286.570 121.541 L 286.749 120.110 288.258 119.433 C 291.714 117.881,295.654 117.582,297.836 118.704 M247.837 148.099 C 247.302 148.238,247.300 148.226,248.177 149.550 C 248.721 150.370,248.935 150.506,249.479 150.375 C 250.382 150.157,250.381 150.171,249.594 148.982 C 248.898 147.930,248.759 147.860,247.837 148.099 M216.838 152.148 C 216.575 157.896,215.482 161.659,213.472 163.740 L 212.652 164.590 213.232 165.171 L 213.812 165.751 214.446 164.972 C 215.636 163.510,216.695 161.203,217.336 158.678 C 217.688 157.291,218.008 156.124,218.047 156.085 C 218.086 156.046,218.711 156.885,219.435 157.950 L 220.752 159.885 221.309 159.293 L 221.865 158.701 220.016 156.239 L 218.167 153.776 218.346 151.107 L 218.524 148.438 217.766 148.438 L 217.008 148.438 216.838 152.148 M224.109 149.284 C 224.036 149.749,223.931 151.595,223.875 153.385 C 223.754 157.302,223.166 159.164,221.201 161.852 C 220.497 162.814,219.752 163.836,219.544 164.123 C 219.189 164.614,219.659 165.387,220.297 165.358 C 220.646 165.343,223.052 161.831,223.982 159.979 C 224.542 158.864,225.000 158.142,225.000 158.373 C 225.000 159.080,227.001 162.818,228.061 164.092 L 229.061 165.293 229.700 164.755 L 230.339 164.216 229.123 162.972 C 226.751 160.545,225.789 157.596,225.590 152.148 C 225.457 148.475,225.449 148.438,224.849 148.438 C 224.366 148.438,224.215 148.609,224.109 149.284 M239.740 148.929 C 239.251 149.469,239.257 149.485,240.392 150.714 C 241.022 151.395,241.713 152.223,241.928 152.552 C 242.280 153.094,242.367 153.115,242.831 152.774 C 243.473 152.302,243.239 151.792,241.460 149.774 L 240.234 148.383 239.740 148.929 M319.401 150.000 L 319.220 151.563 318.073 151.563 C 317.024 151.563,316.927 151.618,316.927 152.214 C 316.927 152.784,317.040 152.865,317.839 152.865 C 318.904 152.865,318.872 152.633,318.354 156.527 L 317.957 159.505 318.540 159.896 C 318.861 160.111,319.397 160.521,319.732 160.807 L 320.341 161.328 319.480 162.244 C 319.007 162.748,318.228 163.482,317.749 163.875 L 316.878 164.591 317.487 165.083 C 318.254 165.705,318.604 165.528,320.205 163.712 L 321.430 162.322 322.332 163.321 C 323.265 164.353,323.507 164.384,323.965 163.530 C 324.188 163.112,324.058 162.835,323.204 161.908 L 322.174 160.791 322.637 159.106 C 322.891 158.180,323.180 156.426,323.279 155.208 C 323.378 153.991,323.571 152.956,323.708 152.908 C 324.887 152.499,323.863 151.563,322.238 151.563 C 320.887 151.563,320.547 151.486,320.654 151.205 C 320.730 151.009,320.873 150.306,320.972 149.643 L 321.153 148.438 320.368 148.438 C 319.602 148.438,319.578 148.476,319.401 150.000 M166.296 149.197 C 165.802 149.743,165.803 149.756,166.450 150.460 C 168.158 152.320,168.256 152.617,167.734 154.343 C 166.885 157.146,165.392 159.609,163.085 162.010 L 160.929 164.255 161.452 164.875 L 161.974 165.495 164.132 163.281 C 166.331 161.025,168.031 158.277,168.767 155.791 L 169.095 154.681 170.249 156.963 C 171.693 159.817,173.207 161.932,175.212 163.898 L 176.770 165.426 177.223 164.736 L 177.675 164.045 175.865 162.166 C 173.578 159.792,172.884 158.756,170.726 154.501 C 169.766 152.608,168.489 150.516,167.888 149.852 L 166.795 148.645 166.296 149.197 M190.845 149.550 C 190.521 150.013,189.588 151.094,188.770 151.953 C 187.309 153.490,187.292 153.525,187.745 154.084 L 188.207 154.653 189.250 153.564 C 190.437 152.323,192.448 149.780,192.448 149.518 C 192.448 148.747,191.392 148.768,190.845 149.550 M327.105 150.329 C 326.616 151.222,325.780 152.545,325.247 153.268 C 323.755 155.296,324.019 155.469,328.600 155.469 C 332.007 155.469,332.294 155.507,332.552 155.990 C 332.876 156.595,333.039 156.619,333.655 156.151 C 334.142 155.781,331.776 150.781,331.114 150.781 C 330.079 150.781,329.952 151.418,330.736 152.669 C 331.162 153.348,331.510 153.964,331.510 154.036 C 331.510 154.108,330.339 154.167,328.907 154.167 L 326.303 154.167 327.177 152.930 C 327.658 152.249,328.361 151.155,328.740 150.498 L 329.427 149.303 328.764 149.000 C 328.399 148.834,328.077 148.699,328.048 148.701 C 328.019 148.703,327.594 149.435,327.105 150.329 M266.251 153.516 L 266.276 158.073 269.351 158.073 L 272.426 158.073 272.346 159.180 L 272.266 160.286 269.336 160.360 L 266.406 160.434 266.406 161.090 L 266.406 161.747 269.336 161.699 L 272.266 161.651 272.346 162.727 L 272.426 163.802 268.505 163.802 C 264.757 163.802,264.583 163.825,264.583 164.323 C 264.583 164.833,264.757 164.844,272.917 164.844 C 281.076 164.844,281.250 164.833,281.250 164.323 C 281.250 163.826,281.076 163.802,277.474 163.802 L 273.698 163.802 273.698 162.760 L 273.698 161.719 276.693 161.719 L 279.688 161.719 279.688 161.068 L 279.688 160.417 276.693 160.417 L 273.698 160.417 273.698 159.245 L 273.698 158.073 276.628 158.073 L 279.557 158.074 279.481 153.516 L 279.404 148.958 272.814 148.958 L 266.225 148.958 266.251 153.516 M194.010 150.130 L 194.010 150.781 198.641 150.781 L 203.272 150.781 203.326 150.130 L 203.380 149.479 198.695 149.479 L 194.010 149.479 194.010 150.130 M291.667 150.260 L 291.667 151.042 293.490 151.042 L 295.313 151.042 295.313 153.646 L 295.313 156.250 292.969 156.250 C 290.642 156.250,290.625 156.255,290.625 156.901 C 290.625 157.548,290.640 157.552,293.002 157.552 L 295.379 157.552 295.209 158.615 C 294.969 160.117,293.900 162.101,292.560 163.534 L 291.414 164.760 292.022 165.332 L 292.631 165.904 293.602 164.829 C 295.206 163.053,296.051 161.492,296.501 159.470 L 296.927 157.552 299.505 157.552 L 302.083 157.552 302.083 161.589 L 302.083 165.625 302.799 165.625 L 303.516 165.625 303.446 161.589 L 303.377 157.552 305.465 157.552 C 307.518 157.552,307.552 157.541,307.552 156.901 C 307.552 156.261,307.517 156.250,305.469 156.250 L 303.385 156.250 303.385 153.646 L 303.385 151.042 304.948 151.042 L 306.510 151.042 306.510 150.260 L 306.510 149.479 299.089 149.479 L 291.667 149.479 291.667 150.260 M272.396 151.563 L 272.396 152.865 270.052 152.865 L 267.708 152.865 267.708 151.563 L 267.708 150.260 270.052 150.260 L 272.396 150.260 272.396 151.563 M278.125 151.563 L 278.125 152.865 275.911 152.865 L 273.698 152.865 273.698 151.563 L 273.698 150.260 275.911 150.260 L 278.125 150.260 278.125 151.563 M302.083 153.646 L 302.083 156.250 299.479 156.250 L 296.875 156.250 296.875 153.646 L 296.875 151.042 299.479 151.042 L 302.083 151.042 302.083 153.646 M244.010 151.953 L 244.010 152.604 247.656 152.604 C 251.786 152.604,251.633 152.500,250.776 154.743 C 249.774 157.362,249.713 157.378,247.832 155.514 L 246.191 153.888 245.687 154.449 L 245.182 155.011 246.957 156.639 L 248.732 158.267 247.143 159.329 C 246.269 159.912,245.148 160.537,244.652 160.716 C 243.639 161.082,243.617 161.130,244.143 161.826 C 244.604 162.434,247.722 161.063,249.063 159.663 L 249.819 158.873 250.851 159.691 C 251.419 160.140,252.319 161.060,252.852 161.734 C 253.801 162.934,254.101 163.022,254.919 162.338 C 255.057 162.223,252.896 159.378,252.661 159.364 C 252.558 159.359,252.090 159.025,251.620 158.623 L 250.767 157.893 251.561 156.383 C 251.998 155.553,252.483 154.363,252.641 153.739 C 252.922 152.622,252.944 152.604,254.035 152.604 C 255.044 152.604,255.143 152.546,255.143 151.953 L 255.143 151.302 249.577 151.302 L 244.010 151.302 244.010 151.953 M321.800 155.029 C 321.643 157.253,321.159 159.640,320.868 159.630 C 319.765 159.591,319.551 158.765,319.926 155.990 C 320.130 154.486,320.300 153.167,320.304 153.060 C 320.309 152.952,320.681 152.865,321.132 152.865 L 321.952 152.865 321.800 155.029 M191.034 154.466 C 190.768 154.917,189.748 156.131,188.767 157.163 C 187.043 158.978,187.001 159.054,187.476 159.483 C 187.943 159.906,188.013 159.887,188.905 159.103 L 189.844 158.279 189.844 161.952 L 189.844 165.625 190.495 165.625 L 191.146 165.625 191.146 161.156 L 191.146 156.686 191.948 155.436 C 192.390 154.748,192.676 154.064,192.584 153.916 C 192.260 153.391,191.512 153.656,191.034 154.466 M272.396 155.469 L 272.396 156.771 270.052 156.771 L 267.708 156.771 267.708 155.469 L 267.708 154.167 270.052 154.167 L 272.396 154.167 272.396 155.469 M278.125 155.469 L 278.125 156.771 275.911 156.771 L 273.698 156.771 273.698 155.469 L 273.698 154.167 275.911 154.167 L 278.125 154.167 278.125 155.469 M193.490 155.599 L 193.490 156.250 196.615 156.250 L 199.740 156.250 199.740 159.887 C 199.740 164.034,199.729 164.054,197.585 163.976 C 196.911 163.952,196.358 164.020,196.357 164.128 C 196.341 165.420,196.262 165.365,198.119 165.365 C 201.034 165.365,201.042 165.352,201.042 160.402 L 201.042 156.250 202.734 156.250 C 204.366 156.250,204.427 156.227,204.427 155.599 L 204.427 154.948 198.958 154.948 L 193.490 154.948 193.490 155.599 M239.063 155.599 C 239.063 156.185,239.167 156.250,240.104 156.250 L 241.146 156.250 241.146 158.792 C 241.146 161.556,241.287 161.218,239.153 163.553 C 238.578 164.182,238.569 164.246,238.978 164.830 L 239.409 165.445 239.858 164.891 C 241.610 162.728,241.715 162.638,242.021 163.051 C 243.590 165.163,255.469 166.385,255.469 164.434 C 255.469 163.843,255.463 163.843,250.586 163.757 C 243.140 163.627,242.448 163.135,242.448 157.968 L 242.448 154.948 240.755 154.948 C 239.123 154.948,239.063 154.971,239.063 155.599 M324.740 161.719 L 324.740 165.625 325.391 165.625 C 325.868 165.625,326.042 165.486,326.042 165.104 C 326.042 164.615,326.215 164.583,328.906 164.583 C 331.279 164.583,331.771 164.650,331.771 164.974 C 331.771 165.217,332.017 165.365,332.422 165.365 L 333.073 165.365 333.073 161.589 L 333.073 157.813 328.906 157.813 L 324.740 157.813 324.740 161.719 M331.771 161.198 L 331.771 163.281 328.906 163.281 L 326.042 163.281 326.042 161.198 L 326.042 159.115 328.906 159.115 L 331.771 159.115 331.771 161.198 " stroke="none" fill="#f8f9fa" fill-rule="evenodd"></path><path id="path2" d="M56.422 91.709 C 56.327 95.170,56.250 115.682,56.250 137.293 L 56.250 176.585 59.823 176.547 L 63.396 176.509 64.316 175.559 C 65.097 174.752,69.194 169.967,82.031 154.869 C 83.249 153.438,84.534 151.903,84.887 151.459 C 85.616 150.543,79.091 156.693,69.238 166.210 C 63.019 172.217,62.500 172.656,61.621 172.656 L 60.677 172.656 60.677 131.250 L 60.677 89.844 76.708 89.844 C 87.605 89.844,92.686 89.758,92.574 89.576 C 92.483 89.429,92.271 89.326,92.103 89.347 C 91.418 89.431,89.486 89.254,89.902 89.145 C 90.261 89.050,90.288 88.957,90.033 88.681 C 89.857 88.491,89.640 88.380,89.551 88.434 C 89.294 88.589,87.976 87.263,88.134 87.008 C 88.307 86.726,87.811 86.298,87.109 86.126 C 86.823 86.056,87.116 85.974,87.760 85.945 C 93.833 85.670,88.565 85.480,74.065 85.451 L 56.594 85.417 56.422 91.709 M305.019 103.646 C 305.019 104.290,305.070 104.554,305.132 104.232 C 305.194 103.910,305.194 103.382,305.132 103.060 C 305.070 102.738,305.019 103.001,305.019 103.646 M84.775 139.604 C 85.486 140.332,86.771 141.527,87.630 142.259 C 89.111 143.520,89.138 143.532,88.153 142.487 C 87.053 141.321,87.135 140.899,88.461 140.889 C 88.775 140.887,89.104 140.768,89.193 140.625 C 89.281 140.482,89.590 140.365,89.879 140.365 C 90.168 140.365,90.776 139.991,91.231 139.534 L 92.057 138.703 96.224 138.597 C 103.060 138.424,101.178 138.281,92.045 138.281 L 83.483 138.281 84.775 139.604 M94.987 142.378 C 95.596 142.433,96.592 142.433,97.201 142.378 C 97.809 142.323,97.311 142.278,96.094 142.278 C 94.876 142.278,94.378 142.323,94.987 142.378 M266.206 154.948 C 266.206 155.449,266.260 155.654,266.325 155.404 C 266.391 155.153,266.391 154.743,266.325 154.492 C 266.260 154.242,266.206 154.447,266.206 154.948 M303.463 159.375 C 303.463 160.163,303.512 160.485,303.572 160.091 C 303.632 159.697,303.632 159.053,303.572 158.659 C 303.512 158.265,303.463 158.587,303.463 159.375 M303.456 163.542 C 303.456 164.186,303.507 164.450,303.569 164.128 C 303.631 163.805,303.631 163.278,303.569 162.956 C 303.507 162.633,303.456 162.897,303.456 163.542 " stroke="none" fill="#05bbf4" fill-rule="evenodd"></path><path id="path3" d="M89.063 85.814 C 87.702 85.988,86.845 86.146,87.159 86.164 C 87.743 86.199,88.092 86.557,88.193 87.227 C 88.253 87.624,89.340 88.560,89.576 88.418 C 89.652 88.373,89.857 88.491,90.033 88.681 C 90.288 88.957,90.261 89.050,89.902 89.145 C 89.496 89.251,91.490 89.440,92.020 89.345 C 92.142 89.323,92.376 89.414,92.540 89.548 C 92.707 89.685,96.046 89.809,100.111 89.831 C 105.599 89.860,107.452 89.951,107.663 90.198 C 107.880 90.453,109.279 90.491,113.932 90.369 L 119.922 90.211 127.148 97.382 L 134.375 104.554 134.375 114.453 L 134.375 124.353 127.409 131.290 L 120.443 138.228 107.813 138.388 C 91.366 138.595,92.234 138.535,91.224 139.546 C 90.773 139.996,90.168 140.365,89.879 140.365 C 89.590 140.365,89.281 140.482,89.193 140.625 C 89.104 140.768,88.775 140.887,88.461 140.889 C 87.512 140.896,87.079 141.289,87.484 141.777 C 87.671 142.003,87.722 142.192,87.597 142.197 C 87.472 142.202,94.987 149.756,104.297 158.985 L 121.224 175.764 130.013 175.773 L 138.802 175.781 138.802 169.949 L 138.802 164.117 135.482 161.030 C 133.656 159.333,131.400 157.234,130.469 156.366 C 127.724 153.808,125.435 151.722,124.765 151.168 C 124.159 150.668,128.032 155.596,132.645 161.196 L 134.896 163.928 134.896 167.771 L 134.896 171.615 128.841 171.613 L 122.786 171.612 108.280 157.116 C 100.301 149.144,93.822 142.543,93.881 142.447 C 93.939 142.352,100.333 142.329,108.090 142.397 L 122.192 142.519 130.757 133.956 L 139.323 125.394 139.323 114.155 L 139.323 102.916 130.404 94.167 L 121.484 85.418 106.510 85.457 C 96.508 85.484,90.715 85.602,89.063 85.814 " stroke="none" fill="#411ff8" fill-rule="evenodd"></path><path id="path4" d="M68.047 85.351 C 69.451 85.397,71.678 85.397,72.995 85.350 C 74.313 85.303,73.164 85.265,70.443 85.265 C 67.721 85.265,66.643 85.304,68.047 85.351 M56.356 89.583 C 56.356 91.947,56.395 92.913,56.444 91.732 C 56.492 90.550,56.492 88.617,56.444 87.435 C 56.395 86.253,56.356 87.220,56.356 89.583 M123.958 87.891 C 125.313 89.251,126.481 90.365,126.552 90.365 C 126.624 90.365,125.574 89.251,124.219 87.891 C 122.864 86.530,121.696 85.417,121.625 85.417 C 121.553 85.417,122.603 86.530,123.958 87.891 M109.704 90.551 C 110.100 90.611,110.686 90.610,111.006 90.548 C 111.326 90.486,111.003 90.437,110.286 90.439 C 109.570 90.441,109.308 90.492,109.704 90.551 M211.849 97.046 C 214.326 97.237,217.449 97.250,217.449 97.070 C 217.448 96.963,215.954 96.895,214.128 96.920 C 212.301 96.946,211.276 97.002,211.849 97.046 M171.419 97.329 C 172.386 97.379,173.968 97.379,174.935 97.329 C 175.902 97.278,175.111 97.237,173.177 97.237 C 171.243 97.237,170.452 97.278,171.419 97.329 M313.399 109.115 C 313.399 114.199,313.434 116.279,313.476 113.737 C 313.519 111.195,313.519 107.035,313.476 104.492 C 313.434 101.950,313.399 104.030,313.399 109.115 M203.185 110.156 C 203.185 110.658,203.239 110.863,203.305 110.612 C 203.370 110.361,203.370 109.951,203.305 109.701 C 203.239 109.450,203.185 109.655,203.185 110.156 M244.887 113.411 C 244.887 114.844,244.931 115.396,244.984 114.640 C 245.037 113.883,245.036 112.711,244.983 112.036 C 244.929 111.360,244.886 111.979,244.887 113.411 M294.340 113.208 C 294.735 113.268,295.321 113.266,295.642 113.204 C 295.962 113.142,295.638 113.093,294.922 113.095 C 294.206 113.097,293.944 113.148,294.340 113.208 M256.576 115.037 C 257.542 115.087,259.124 115.087,260.091 115.037 C 261.058 114.987,260.267 114.946,258.333 114.946 C 256.400 114.946,255.609 114.987,256.576 115.037 M280.039 119.010 C 280.039 120.228,280.084 120.726,280.139 120.117 C 280.193 119.508,280.193 118.512,280.139 117.904 C 280.084 117.295,280.039 117.793,280.039 119.010 M315.820 118.684 C 317.288 118.730,319.691 118.730,321.159 118.684 C 322.627 118.637,321.426 118.599,318.490 118.599 C 315.553 118.599,314.352 118.637,315.820 118.684 M202.945 123.828 C 202.947 124.688,202.995 125.008,203.053 124.540 C 203.111 124.072,203.110 123.368,203.051 122.977 C 202.991 122.586,202.944 122.969,202.945 123.828 M335.488 123.958 C 335.488 124.603,335.538 124.867,335.600 124.544 C 335.663 124.222,335.663 123.695,335.600 123.372 C 335.538 123.050,335.488 123.314,335.488 123.958 M329.493 124.609 C 329.496 125.182,329.549 125.386,329.611 125.062 C 329.674 124.738,329.671 124.269,329.606 124.020 C 329.541 123.771,329.490 124.036,329.493 124.609 M312.826 130.859 C 312.829 131.432,312.882 131.636,312.945 131.312 C 313.007 130.988,313.005 130.519,312.939 130.270 C 312.874 130.021,312.823 130.286,312.826 130.859 M320.762 131.178 C 321.225 131.235,322.045 131.236,322.585 131.180 C 323.126 131.123,322.747 131.076,321.745 131.075 C 320.742 131.074,320.300 131.120,320.762 131.178 M256.706 136.121 C 257.028 136.183,257.555 136.183,257.878 136.121 C 258.200 136.059,257.936 136.008,257.292 136.008 C 256.647 136.008,256.383 136.059,256.706 136.121 M320.313 148.369 C 320.671 148.436,321.050 148.625,321.155 148.789 C 321.278 148.982,321.348 148.926,321.350 148.633 C 321.353 148.284,321.155 148.185,320.508 148.213 C 319.791 148.243,319.761 148.267,320.313 148.369 M291.508 149.590 C 291.429 149.795,291.409 150.234,291.462 150.567 C 291.533 151.012,291.594 150.914,291.691 150.195 C 291.827 149.184,291.755 148.946,291.508 149.590 M269.843 150.454 L 272.108 150.541 272.205 151.768 L 272.302 152.995 272.349 151.628 L 272.396 150.260 269.987 150.314 L 267.578 150.368 269.843 150.454 M274.805 150.450 C 275.342 150.506,276.221 150.506,276.758 150.450 C 277.295 150.394,276.855 150.348,275.781 150.348 C 274.707 150.348,274.268 150.394,274.805 150.450 M246.810 151.236 C 248.278 151.282,250.680 151.282,252.148 151.236 C 253.617 151.189,252.415 151.152,249.479 151.152 C 246.543 151.152,245.342 151.189,246.810 151.236 M317.386 153.049 C 317.710 153.111,318.179 153.109,318.428 153.044 C 318.676 152.978,318.411 152.927,317.839 152.930 C 317.266 152.933,317.062 152.986,317.386 153.049 M320.638 153.044 C 320.889 153.110,321.299 153.110,321.549 153.044 C 321.800 152.979,321.595 152.925,321.094 152.925 C 320.592 152.925,320.387 152.979,320.638 153.044 M81.103 154.753 L 80.339 155.599 81.185 154.834 C 81.974 154.121,82.151 153.906,81.950 153.906 C 81.905 153.906,81.524 154.287,81.103 154.753 M279.516 155.859 C 279.517 157.005,279.563 157.442,279.618 156.829 C 279.673 156.217,279.672 155.279,279.616 154.746 C 279.560 154.212,279.515 154.714,279.516 155.859 M272.213 155.469 C 272.213 156.257,272.262 156.579,272.322 156.185 C 272.382 155.791,272.382 155.146,272.322 154.753 C 272.262 154.359,272.213 154.681,272.213 155.469 M193.399 154.883 C 193.332 154.990,194.937 155.048,196.964 155.011 C 203.863 154.884,204.568 154.792,199.039 154.740 C 196.004 154.711,193.466 154.775,193.399 154.883 M239.773 154.875 C 240.235 154.933,241.055 154.934,241.596 154.878 C 242.136 154.821,241.758 154.774,240.755 154.773 C 239.753 154.772,239.311 154.818,239.773 154.875 M240.979 158.594 C 240.979 159.954,241.023 160.511,241.077 159.831 C 241.130 159.150,241.130 158.037,241.077 157.357 C 241.023 156.676,240.979 157.233,240.979 158.594 M290.365 156.886 C 290.365 157.235,290.461 157.581,290.578 157.653 C 290.695 157.726,290.740 157.440,290.679 157.017 C 290.542 156.087,290.365 156.012,290.365 156.886 M324.594 157.890 C 324.522 158.075,324.500 159.921,324.545 161.991 L 324.625 165.755 324.682 161.790 L 324.740 157.825 328.971 157.747 L 333.203 157.668 328.963 157.610 C 325.689 157.565,324.694 157.629,324.594 157.890 M191.251 161.719 C 191.251 163.939,191.291 164.847,191.339 163.737 C 191.388 162.627,191.388 160.811,191.339 159.701 C 191.291 158.590,191.251 159.499,191.251 161.719 M76.676 158.919 L 75.911 159.766 76.758 159.001 C 77.547 158.288,77.724 158.073,77.523 158.073 C 77.478 158.073,77.097 158.454,76.676 158.919 M272.177 159.041 L 272.135 160.139 269.227 160.213 C 267.126 160.266,266.300 160.379,266.252 160.618 C 266.215 160.801,266.244 160.830,266.317 160.684 C 266.396 160.526,267.613 160.417,269.301 160.417 C 272.434 160.417,272.517 160.373,272.326 158.814 C 272.228 158.022,272.215 158.043,272.177 159.041 M331.601 161.198 C 331.601 162.415,331.646 162.913,331.701 162.305 C 331.756 161.696,331.756 160.700,331.701 160.091 C 331.646 159.482,331.601 159.980,331.601 161.198 M107.682 162.500 C 108.965 163.789,110.074 164.844,110.145 164.844 C 110.217 164.844,109.226 163.789,107.943 162.500 C 106.660 161.211,105.551 160.156,105.480 160.156 C 105.408 160.156,106.399 161.211,107.682 162.500 M275.206 160.349 C 276.106 160.400,277.513 160.400,278.331 160.348 C 279.148 160.297,278.411 160.255,276.693 160.256 C 274.974 160.256,274.305 160.298,275.206 160.349 M201.120 162.500 C 201.120 163.288,201.169 163.610,201.228 163.216 C 201.288 162.822,201.288 162.178,201.228 161.784 C 201.169 161.390,201.120 161.712,201.120 162.500 M272.129 162.707 L 272.255 163.932 272.343 162.921 C 272.392 162.365,272.335 161.814,272.217 161.697 C 272.100 161.579,272.060 162.034,272.129 162.707 M163.802 163.672 C 163.170 164.316,162.711 164.844,162.782 164.844 C 162.854 164.844,163.430 164.316,164.063 163.672 C 164.695 163.027,165.154 162.500,165.082 162.500 C 165.011 162.500,164.435 163.027,163.802 163.672 M174.740 163.672 C 175.225 164.173,175.682 164.583,175.753 164.583 C 175.825 164.583,175.486 164.173,175.000 163.672 C 174.514 163.171,174.058 162.760,173.986 162.760 C 173.915 162.760,174.254 163.171,174.740 163.672 M70.433 164.909 L 69.141 166.276 70.508 164.984 C 71.260 164.273,71.875 163.658,71.875 163.617 C 71.875 163.422,71.634 163.638,70.433 164.909 M327.279 164.775 C 328.031 164.828,329.261 164.828,330.013 164.775 C 330.765 164.723,330.150 164.680,328.646 164.680 C 327.142 164.680,326.527 164.723,327.279 164.775 M331.593 164.974 C 331.630 165.347,331.849 165.504,332.362 165.527 C 332.989 165.554,332.999 165.544,332.441 165.446 C 332.090 165.384,331.744 165.135,331.672 164.893 C 331.577 164.576,331.555 164.598,331.593 164.974 M268.685 165.039 C 271.012 165.082,274.821 165.082,277.148 165.039 C 279.476 164.995,277.572 164.960,272.917 164.960 C 268.262 164.960,266.357 164.995,268.685 165.039 M252.546 165.295 C 253.158 165.350,254.096 165.349,254.629 165.293 C 255.163 165.238,254.661 165.192,253.516 165.193 C 252.370 165.194,251.933 165.240,252.546 165.295 M197.335 165.553 C 197.803 165.611,198.507 165.610,198.898 165.551 C 199.289 165.491,198.906 165.444,198.047 165.445 C 197.188 165.447,196.867 165.495,197.335 165.553 M119.922 168.750 C 121.493 170.326,122.836 171.615,122.908 171.615 C 122.979 171.615,121.753 170.326,120.182 168.750 C 118.612 167.174,117.268 165.885,117.196 165.885 C 117.125 165.885,118.351 167.174,119.922 168.750 M61.396 172.580 C 61.720 172.642,62.189 172.640,62.438 172.575 C 62.687 172.510,62.422 172.459,61.849 172.462 C 61.276 172.464,61.072 172.518,61.396 172.580 M126.758 175.975 C 128.083 176.023,130.251 176.023,131.576 175.975 C 132.900 175.928,131.816 175.889,129.167 175.889 C 126.517 175.889,125.433 175.928,126.758 175.975 " stroke="none" fill="#3a4772" fill-rule="evenodd"></path></g></svg>